<svg width="482" height="180" viewBox="0 0 482 180" fill="none" xmlns="http://www.w3.org/2000/svg">
<path d="M19.8996 149.8V148.8C20.5996 148.6 20.9996 148.3 21.2996 148.1C21.4996 147.9 21.6996 147.5 21.6996 146.9C21.6996 146.7 21.6996 146.5 21.6996 146.3C21.6996 146.1 21.5996 145.9 21.5996 145.8L10.7996 115.7C10.3996 114.4 9.89961 113.6 9.49961 113.1C9.09961 112.6 8.39961 112.3 7.59961 112V111H19.9996V111.9C19.2996 112.1 18.8996 112.4 18.5996 112.6C18.3996 112.8 18.1996 113.1 18.1996 113.5C18.1996 113.6 18.1996 113.8 18.2996 114C18.3996 114.2 18.4996 114.5 18.5996 114.8L26.1996 138L33.6996 114.8C33.6996 114.7 33.7996 114.5 33.7996 114.3C33.7996 114.1 33.7996 113.9 33.7996 113.7C33.7996 113.2 33.6996 112.8 33.4996 112.6C33.2996 112.4 32.7996 112.1 32.0996 111.9V111H45.4996V111.9C44.7996 112.1 44.3996 112.4 44.0996 112.6C43.8996 112.8 43.6996 113.1 43.6996 113.5C43.6996 113.6 43.6996 113.8 43.7996 114C43.8996 114.2 43.9996 114.5 44.0996 114.8L51.5996 137.4L58.9996 114.8C58.9996 114.7 59.0996 114.5 59.0996 114.3C59.0996 114.1 59.0996 113.9 59.0996 113.7C59.0996 113.2 58.9996 112.8 58.7996 112.6C58.5996 112.4 58.0996 112.1 57.3996 111.9V111H69.3996V111.9C68.4996 112.2 67.8996 112.6 67.4996 113C67.0996 113.5 66.6996 114.3 66.1996 115.6L55.6996 145.7C55.6996 145.8 55.5996 146 55.5996 146.2C55.5996 146.4 55.5996 146.6 55.5996 146.8C55.5996 147.4 55.6996 147.7 55.8996 148C56.0996 148.2 56.5996 148.5 57.2996 148.7V149.7H45.3996V148.7C46.0996 148.5 46.5996 148.2 46.7996 148C46.9996 147.7 47.1996 147.4 47.1996 146.8C47.1996 146.7 47.1996 146.5 47.0996 146.3C47.0996 146.1 46.9996 145.9 46.8996 145.7L38.5996 120.1L30.1996 145.6C30.1996 145.7 30.0996 145.9 30.0996 146.1C30.0996 146.3 30.0996 146.5 30.0996 146.7C30.0996 147.2 30.1996 147.6 30.3996 147.9C30.5996 148.1 31.0996 148.4 31.7996 148.7V149.7L19.8996 149.8Z" fill="#58585A"/>
<path d="M74.7998 147.4L77.9998 139.5L78.9998 140C78.9998 140 78.9998 140.1 78.8998 140.2C78.8998 140.4 78.7998 140.6 78.7998 140.6C78.7998 141.4 79.9998 142.3 82.3998 143.2C84.7998 144.1 87.1998 144.6 89.6998 144.6C92.1998 144.6 94.2998 144.2 95.7998 143.5C97.2998 142.8 97.9998 141.8 97.9998 140.5C97.9998 138.7 95.4998 137.7 90.3998 137.4C88.3998 137.3 86.7998 137.2 85.5998 137.1C82.0998 136.8 79.4998 135.9 77.7998 134.4C76.0998 132.9 75.1998 130.8 75.1998 128.1C75.1998 124.9 76.4998 122.2 78.9998 120.3C81.4998 118.4 84.9998 117.3 89.1998 117.3C92.0998 117.3 94.9998 117.9 97.8998 119.1C98.3998 119.3 98.6998 119.4 98.7998 119.4C99.0998 119.4 99.6998 119.6 100.5 120.1C101.4 120.6 102 120.8 102.5 120.8C102.6 120.8 102.7 120.7 102.9 120.6C103.1 120.5 103.3 120.4 103.5 120.2L104.3 120.6L100.7 128.6L99.6998 128C99.6998 128 99.6998 127.9 99.7998 127.9C99.7998 127.9 99.7998 127.8 99.7998 127.6C99.7998 126.7 98.6998 125.7 96.3998 124.6C94.0998 123.5 91.7998 123 89.3998 123C87.1998 123 85.3998 123.3 83.9998 124C82.5998 124.7 81.8998 125.5 81.8998 126.5C81.8998 128.1 83.8998 129 87.7998 129.2C90.7998 129.4 93.1998 129.6 95.0998 130C98.2998 130.6 100.8 131.7 102.4 133.3C104 134.9 104.8 136.9 104.8 139.4C104.8 142.6 103.4 145.2 100.6 147.2C97.7998 149.2 94.1998 150.2 89.6998 150.2C85.4998 150.2 81.3998 149.3 77.5998 147.4C76.8998 147 76.3998 146.9 76.2998 146.9C76.0998 146.9 75.8998 147 75.7998 147C75.6998 147.1 75.5998 147.2 75.4998 147.4H74.7998Z" fill="#58585A"/>
<path d="M148.1 136.399L148.8 135.899L153.8 144.199L153 144.699C152.7 144.499 152.5 144.299 152.4 144.199C152.3 144.099 152.1 144.099 152 144.099C151.7 144.099 151 144.499 149.8 145.299C144.3 148.799 139 150.499 133.9 150.499C127.9 150.499 122.9 148.599 119 144.799C115 140.999 113.1 136.199 113.1 130.399C113.1 124.499 115.1 119.699 119.1 115.899C123.1 112.099 128.4 110.199 134.8 110.199C138.1 110.199 141.4 110.799 144.8 111.899C148.2 113.099 149.9 113.599 150.1 113.599C150.4 113.599 150.7 113.499 151 113.499C151.3 113.499 151.6 113.399 152 113.399L152.7 113.899L147.6 122.699L146.8 122.199C146.8 122.199 146.8 122.099 146.9 122.099C146.9 122.099 146.9 121.999 146.9 121.899C146.9 120.799 145.6 119.699 142.9 118.499C140.3 117.299 137.5 116.799 134.5 116.799C130.5 116.799 127.2 117.999 124.6 120.499C122 122.999 120.7 126.099 120.7 129.899C120.7 133.899 122 137.199 124.6 139.599C127.2 142.099 130.6 143.299 134.7 143.299C137.8 143.299 140.8 142.599 143.7 141.199C146.7 139.799 148.2 138.599 148.2 137.699C148.2 137.499 148.2 137.299 148.1 137.099C148.2 136.899 148.2 136.599 148.1 136.399Z" fill="#58585A"/>
<path d="M186.8 120.999C186.8 120.299 186.7 119.799 186.5 119.499C186.3 119.199 185.8 118.999 185.2 118.899V117.899H195.7V118.899C195.1 118.999 194.6 119.199 194.4 119.499C194.2 119.799 194.1 120.299 194 120.999L193.9 137.799C193.9 142.399 192.7 145.599 190.4 147.499C188.1 149.399 184.1 150.299 178.6 150.299C173.2 150.299 169.3 149.299 166.9 147.399C164.6 145.499 163.4 142.299 163.4 137.699V120.999C163.4 120.299 163.3 119.799 163 119.499C162.8 119.199 162.3 118.999 161.6 118.899V117.899H172.1V118.899C171.5 118.999 171 119.299 170.8 119.499C170.6 119.799 170.5 120.299 170.5 120.999V136.399C170.5 139.199 171.1 141.199 172.4 142.399C173.7 143.599 175.7 144.199 178.6 144.199C181.5 144.199 183.6 143.599 184.8 142.299C186 140.999 186.7 138.899 186.7 135.999V120.999H186.8Z" fill="#58585A"/>
<path d="M227.2 117.899C230.6 117.899 233.3 118.599 235.2 120.099C237.1 121.599 238 123.599 238 126.099C238 127.499 237.7 128.799 237 129.799C236.3 130.799 235.3 131.799 233.9 132.599C235.6 133.499 236.9 134.599 237.7 135.899C238.5 137.199 238.9 138.699 238.9 140.399C238.9 143.299 237.8 145.599 235.7 147.199C233.5 148.799 230.5 149.599 226.5 149.599H206.5V148.599C207.1 148.499 207.6 148.199 207.8 147.999C208 147.699 208.1 147.199 208.1 146.499V120.999C208.1 120.299 208 119.799 207.8 119.499C207.6 119.199 207.1 118.999 206.5 118.899V117.899H227.2ZM225.1 123.499H215.4V130.099H225.9C227.7 130.099 229.1 129.799 229.9 129.299C230.8 128.799 231.2 127.899 231.2 126.799C231.2 125.599 230.7 124.799 229.8 124.299C228.9 123.699 227.3 123.499 225.1 123.499ZM224.5 135.599H215.3V144.199H224.3C227.3 144.199 229.3 143.899 230.5 143.199C231.7 142.499 232.2 141.399 232.2 139.799C232.2 138.299 231.6 137.199 230.4 136.499C229.2 135.899 227.2 135.599 224.5 135.599Z" fill="#58585A"/>
<path d="M276.5 117.899C277.2 117.899 277.7 117.799 277.9 117.599C278.1 117.399 278.3 116.899 278.5 116.199H279.4V126.099H278.5C278.4 125.399 278.2 124.899 277.9 124.699C277.6 124.499 277.2 124.299 276.5 124.299H258.4V130.699H269.5C270.2 130.699 270.7 130.599 270.9 130.399C271.1 130.199 271.3 129.699 271.5 128.999H272.4V138.099H271.5C271.4 137.399 271.2 136.899 270.9 136.699C270.6 136.499 270.2 136.299 269.5 136.299H258.4V143.499H277.2C277.9 143.499 278.4 143.399 278.6 143.199C278.8 142.999 279 142.499 279.2 141.799H280.1V151.699H279.2C279.1 150.999 278.9 150.499 278.6 150.199C278.3 149.899 277.9 149.799 277.2 149.799H249.5V148.799C250.2 148.699 250.6 148.399 250.9 148.099C251.1 147.799 251.3 147.299 251.3 146.599V120.999C251.3 120.299 251.2 119.799 250.9 119.499C250.7 119.199 250.2 118.999 249.5 118.899V117.899H276.5Z" fill="#58585A"/>
<path d="M312.9 117.9C312.2 117.9 311.7 118 311.5 118.2C311.3 118.4 311.1 118.9 310.9 119.6H310V109.1H310.9C311.1 109.8 311.3 110.3 311.5 110.6C311.8 110.9 312.2 111 312.9 111H343C343.7 111 344.2 110.9 344.4 110.6C344.6 110.4 344.8 109.9 345 109.1H345.9V119.6H345C344.9 118.9 344.7 118.4 344.4 118.1C344.1 117.8 343.7 117.7 343 117.7H331.8V146.5C331.8 147.2 331.9 147.7 332.1 148C332.3 148.3 332.8 148.5 333.4 148.6V149.6H322.3V148.6C323 148.4 323.4 148.2 323.6 147.9C323.8 147.6 323.9 147.1 324 146.4V117.6H312.9V117.9Z" fill="#0095DA"/>
<path d="M380.199 117.899C380.899 117.899 381.399 117.799 381.599 117.599C381.799 117.399 381.999 116.899 382.199 116.199H383.099V126.099H382.199C382.099 125.399 381.899 124.899 381.599 124.699C381.299 124.499 380.899 124.299 380.199 124.299H362.099V130.699H373.199C373.899 130.699 374.399 130.599 374.599 130.399C374.799 130.199 374.999 129.699 375.199 128.999H376.099V138.099H375.199C375.099 137.399 374.899 136.899 374.599 136.699C374.299 136.499 373.899 136.299 373.199 136.299H362.099V143.499H380.899C381.599 143.499 382.099 143.399 382.299 143.199C382.499 142.999 382.699 142.499 382.899 141.799H383.799V151.699H382.899C382.799 150.999 382.599 150.499 382.299 150.199C381.999 149.899 381.599 149.799 380.899 149.799H353.199V148.799C353.899 148.699 354.299 148.399 354.599 148.099C354.799 147.799 354.999 147.299 354.999 146.599V120.999C354.999 120.299 354.899 119.799 354.599 119.499C354.399 119.199 353.899 118.999 353.199 118.899V117.899H380.199Z" fill="#0095DA"/>
<path d="M421.3 127.9L420.6 127.5V127.4C420.6 127.4 420.6 127.3 420.6 127.2C420.6 126.4 419.5 125.5 417.4 124.6C415.3 123.7 413.1 123.2 410.8 123.2C407.5 123.2 404.9 124.2 402.9 126.1C400.9 128.1 399.9 130.6 399.9 133.8C399.9 136.9 400.9 139.5 402.9 141.4C404.9 143.3 407.6 144.2 410.9 144.2C413.4 144.2 415.9 143.6 418.2 142.5C420.5 141.4 421.7 140.4 421.7 139.7C421.7 139.7 421.7 139.5 421.6 139.3C421.6 139.1 421.5 138.9 421.5 138.7L422.3 138.3L426.8 145.3L426.1 145.7C425.9 145.5 425.7 145.4 425.6 145.4C425.5 145.3 425.4 145.3 425.3 145.3C425.1 145.3 424.4 145.6 423.3 146.3C418.7 149.1 414.3 150.5 410 150.5C405 150.5 400.8 148.9 397.5 145.7C394.2 142.5 392.5 138.6 392.5 133.8C392.5 128.9 394.2 124.9 397.6 121.8C401 118.7 405.4 117.1 410.8 117.1C413.5 117.1 416.3 117.6 419.2 118.5C422 119.5 423.6 119.9 423.8 119.9C424 119.9 424.3 119.9 424.5 119.8C424.7 119.8 425 119.7 425.3 119.6L426.1 120L421.3 127.9Z" fill="#0095DA"/>
<path d="M442.7 146.699C442.7 147.399 442.8 147.899 443.1 148.199C443.3 148.499 443.8 148.699 444.5 148.799V149.799H434V148.799C434.6 148.699 435.1 148.399 435.3 148.199C435.5 147.999 435.6 147.399 435.6 146.699V120.999C435.6 120.299 435.5 119.799 435.3 119.499C435.1 119.199 434.6 118.999 434 118.899V117.899H444.5V118.899C443.8 118.999 443.4 119.299 443.1 119.499C442.9 119.799 442.7 120.299 442.7 120.999V129.599H459.2V120.999C459.2 120.299 459.1 119.799 458.8 119.499C458.6 119.199 458.1 118.999 457.4 118.899V117.899H468V118.899C467.3 118.999 466.9 119.299 466.7 119.499C466.5 119.799 466.4 120.299 466.4 120.999V146.599C466.4 147.299 466.5 147.799 466.7 148.099C466.9 148.399 467.4 148.599 468 148.699V149.699H457.5V148.699C458.2 148.599 458.7 148.299 458.9 148.099C459.1 147.799 459.3 147.299 459.3 146.599V135.799H442.8V146.699H442.7Z" fill="#0095DA"/>
<path d="M258.5 171.6C258.5 172.3 258.4 172.9 258.1 173.5C257.8 174.1 257.5 174.5 257 174.9C256.5 175.3 256 175.6 255.4 175.8C254.8 176 254.1 176.1 253.4 176.1C252.9 176.1 252.4 176.1 252 176C251.6 175.9 251.2 175.8 250.8 175.7C250.5 175.6 250.2 175.4 250 175.3C249.8 175.2 249.6 175.1 249.5 175C249.4 174.9 249.3 174.8 249.3 174.6C249.3 174.5 249.2 174.3 249.2 174C249.2 173.8 249.2 173.7 249.2 173.6C249.2 173.5 249.2 173.4 249.3 173.3C249.3 173.2 249.4 173.2 249.4 173.2C249.4 173.2 249.5 173.2 249.6 173.2C249.7 173.2 249.9 173.3 250.1 173.4C250.3 173.5 250.6 173.7 250.9 173.8C251.2 174 251.6 174.1 252 174.2C252.4 174.3 252.9 174.4 253.5 174.4C253.9 174.4 254.3 174.3 254.7 174.2C255.1 174.1 255.4 173.9 255.6 173.7C255.9 173.5 256.1 173.2 256.2 172.9C256.3 172.6 256.4 172.2 256.4 171.8C256.4 171.4 256.3 171 256.1 170.7C255.9 170.4 255.7 170.1 255.3 169.9C255 169.7 254.6 169.5 254.2 169.3C253.8 169.1 253.4 168.9 253 168.7C252.6 168.5 252.2 168.3 251.8 168C251.4 167.8 251 167.5 250.7 167.2C250.4 166.9 250.1 166.5 249.9 166.1C249.7 165.7 249.6 165.1 249.6 164.5C249.6 163.9 249.7 163.3 249.9 162.8C250.1 162.3 250.4 161.9 250.9 161.6C251.3 161.3 251.8 161 252.3 160.8C252.9 160.6 253.5 160.5 254.1 160.5C254.4 160.5 254.8 160.5 255.1 160.6C255.4 160.7 255.8 160.7 256.1 160.8C256.4 160.9 256.7 161 256.9 161.1C257.1 161.2 257.3 161.3 257.4 161.4C257.5 161.5 257.5 161.5 257.5 161.6C257.5 161.6 257.5 161.7 257.6 161.8C257.6 161.9 257.6 161.9 257.6 162C257.6 162.1 257.6 162.2 257.6 162.4C257.6 162.5 257.6 162.7 257.6 162.8C257.6 162.9 257.6 163 257.5 163.1C257.5 163.2 257.4 163.2 257.4 163.3L257.3 163.4C257.2 163.4 257.1 163.3 256.9 163.2C256.7 163.1 256.5 163 256.2 162.8C255.9 162.7 255.6 162.5 255.3 162.4C254.9 162.3 254.5 162.2 254.1 162.2C253.7 162.2 253.3 162.3 253 162.4C252.7 162.5 252.4 162.7 252.2 162.8C252 163 251.8 163.2 251.7 163.5C251.6 163.8 251.5 164 251.5 164.3C251.5 164.7 251.6 165.1 251.8 165.4C252 165.7 252.3 166 252.6 166.2C252.9 166.4 253.3 166.6 253.7 166.8C254.1 167 254.5 167.2 255 167.4C255.4 167.6 255.8 167.8 256.3 168C256.7 168.2 257.1 168.5 257.4 168.8C257.7 169.1 258 169.5 258.2 169.9C258.4 170.4 258.5 171 258.5 171.6Z" fill="#58585A"/>
<path d="M265.6 175.8L264.2 179.6C264.2 179.7 264 179.8 263.8 179.9C263.6 180 263.3 180 262.9 180C262.7 180 262.5 180 262.4 180C262.3 180 262.2 179.9 262.1 179.9C262 179.9 262 179.8 262 179.7C262 179.6 262 179.5 262.1 179.4L263.5 175.8C263.4 175.8 263.4 175.7 263.3 175.6C263.2 175.5 263.2 175.5 263.2 175.4L259.5 165.4C259.4 165.2 259.4 165.1 259.4 165C259.4 164.9 259.4 164.8 259.5 164.8C259.6 164.7 259.7 164.7 259.8 164.7C259.9 164.7 260.1 164.7 260.4 164.7C260.7 164.7 260.8 164.7 260.9 164.7C261 164.7 261.1 164.7 261.2 164.8C261.3 164.9 261.3 164.9 261.4 164.9C261.4 165 261.5 165 261.5 165.1L264.5 173.5L267.4 165.1C267.4 165 267.5 164.9 267.6 164.8C267.7 164.8 267.8 164.7 267.9 164.7C268 164.7 268.2 164.7 268.5 164.7C268.7 164.7 268.9 164.7 269 164.7C269.1 164.7 269.2 164.8 269.3 164.8C269.4 164.9 269.4 164.9 269.4 165C269.4 165.1 269.4 165.2 269.3 165.3L265.6 175.8Z" fill="#58585A"/>
<path d="M277.9 172.6C277.9 173.1 277.8 173.6 277.6 174C277.4 174.4 277.1 174.8 276.8 175.1C276.5 175.4 276 175.6 275.5 175.7C275 175.8 274.4 175.9 273.8 175.9C273.4 175.9 273.1 175.9 272.7 175.8C272.4 175.7 272.1 175.7 271.8 175.6C271.5 175.5 271.3 175.4 271.1 175.3C270.9 175.2 270.8 175.1 270.7 175C270.6 174.9 270.6 174.8 270.5 174.7C270.5 174.6 270.4 174.4 270.4 174.1C270.4 174 270.4 173.8 270.4 173.7C270.4 173.6 270.4 173.5 270.5 173.5C270.5 173.4 270.6 173.4 270.6 173.4H270.7C270.8 173.4 270.9 173.5 271.1 173.6C271.3 173.7 271.5 173.8 271.7 173.9C271.9 174 272.2 174.1 272.6 174.2C272.9 174.3 273.3 174.4 273.7 174.4C274 174.4 274.3 174.4 274.6 174.3C274.9 174.2 275.1 174.1 275.3 174C275.5 173.9 275.6 173.7 275.7 173.5C275.8 173.3 275.9 173 275.9 172.8C275.9 172.5 275.8 172.3 275.7 172.1C275.6 171.9 275.4 171.7 275.1 171.6C274.8 171.5 274.6 171.3 274.3 171.2C274 171.1 273.7 171 273.3 170.8C273 170.7 272.7 170.5 272.3 170.4C272 170.2 271.7 170 271.5 169.8C271.3 169.6 271.1 169.3 270.9 168.9C270.7 168.6 270.7 168.2 270.7 167.7C270.7 167.3 270.8 166.9 270.9 166.5C271.1 166.1 271.3 165.8 271.6 165.5C271.9 165.2 272.3 165 272.8 164.8C273.3 164.6 273.8 164.5 274.5 164.5C274.8 164.5 275.1 164.5 275.3 164.6C275.6 164.6 275.8 164.7 276.1 164.8C276.3 164.9 276.5 164.9 276.7 165C276.9 165.1 277 165.2 277.1 165.2C277.2 165.3 277.2 165.3 277.3 165.4C277.3 165.4 277.3 165.5 277.4 165.6C277.4 165.7 277.4 165.7 277.4 165.8C277.4 165.9 277.4 166 277.4 166.1C277.4 166.2 277.4 166.3 277.4 166.4C277.4 166.5 277.4 166.6 277.3 166.6C277.3 166.7 277.2 166.7 277.2 166.7H277.1C277 166.7 276.9 166.7 276.8 166.6C276.7 166.5 276.5 166.4 276.3 166.3C276.1 166.2 275.8 166.1 275.6 166C275.3 165.9 275 165.9 274.6 165.9C274.3 165.9 274 165.9 273.7 166C273.5 166.1 273.2 166.2 273.1 166.3C272.9 166.4 272.8 166.6 272.7 166.8C272.6 167 272.6 167.2 272.6 167.4C272.6 167.7 272.7 168 272.8 168.2C273 168.4 273.2 168.6 273.4 168.7C273.6 168.9 273.9 169 274.2 169.1C274.5 169.2 274.8 169.4 275.2 169.5C275.5 169.6 275.9 169.8 276.2 169.9C276.5 170.1 276.8 170.3 277.1 170.5C277.3 170.7 277.5 171 277.7 171.3C277.8 171.8 277.9 172.2 277.9 172.6Z" fill="#58585A"/>
<path d="M285.8 174.699C285.8 174.899 285.8 175.099 285.8 175.199C285.8 175.299 285.7 175.399 285.7 175.499C285.7 175.599 285.5 175.599 285.4 175.699C285.3 175.799 285.1 175.799 285 175.799C284.8 175.799 284.7 175.899 284.5 175.899C284.3 175.899 284.1 175.899 284 175.899C283.5 175.899 283 175.799 282.6 175.699C282.2 175.599 281.9 175.299 281.6 175.099C281.4 174.799 281.2 174.399 281.1 173.999C281 173.599 280.9 172.999 280.9 172.399V166.299H279.4C279.3 166.299 279.2 166.199 279.1 166.099C279 165.999 279 165.799 279 165.499C279 165.399 279 165.199 279 165.099C279 164.999 279 164.899 279.1 164.899C279.1 164.799 279.2 164.799 279.2 164.799C279.2 164.799 279.3 164.799 279.4 164.799H280.9V162.299C280.9 162.199 280.9 162.199 280.9 162.099C280.9 162.099 281 161.999 281.1 161.999C281.2 161.999 281.3 161.899 281.4 161.899C281.5 161.899 281.7 161.899 281.9 161.899C282.1 161.899 282.3 161.899 282.4 161.899C282.5 161.899 282.6 161.899 282.7 161.999C282.8 161.999 282.8 162.099 282.9 162.099C282.9 162.099 282.9 162.199 282.9 162.299V164.799H285.6C285.7 164.799 285.7 164.799 285.8 164.799L285.9 164.899C285.9 164.999 286 164.999 286 165.099C286 165.199 286 165.299 286 165.499C286 165.799 286 165.999 285.9 166.099C285.8 166.199 285.7 166.299 285.6 166.299H282.9V172.099C282.9 172.799 283 173.399 283.2 173.699C283.4 174.099 283.8 174.299 284.3 174.299C284.5 174.299 284.6 174.299 284.8 174.199C284.9 174.199 285.1 174.099 285.2 174.099C285.3 174.099 285.4 173.999 285.5 173.999C285.6 173.999 285.6 173.899 285.7 173.899H285.8L285.9 173.999C285.9 174.099 285.9 174.099 286 174.199C285.8 174.499 285.8 174.599 285.8 174.699Z" fill="#58585A"/>
<path d="M297 169.8C297 170.1 296.9 170.3 296.8 170.4C296.6 170.5 296.5 170.6 296.3 170.6H289.4C289.4 171.2 289.5 171.7 289.6 172.2C289.7 172.7 289.9 173.1 290.2 173.4C290.5 173.7 290.8 174 291.3 174.2C291.7 174.4 292.3 174.5 292.9 174.5C293.4 174.5 293.8 174.5 294.2 174.4C294.6 174.3 294.9 174.2 295.2 174.1C295.5 174 295.7 173.9 295.9 173.8C296.1 173.7 296.2 173.7 296.3 173.7C296.4 173.7 296.4 173.7 296.4 173.7L296.5 173.8C296.5 173.9 296.5 173.9 296.6 174C296.6 174.1 296.6 174.2 296.6 174.4C296.6 174.5 296.6 174.6 296.6 174.7C296.6 174.8 296.6 174.8 296.6 174.9C296.6 175 296.6 175 296.5 175.1L296.4 175.2C296.4 175.2 296.2 175.3 296 175.4C295.8 175.5 295.5 175.6 295.2 175.7C294.9 175.8 294.5 175.9 294 175.9C293.6 176 293.1 176 292.6 176C291.7 176 291 175.9 290.3 175.6C289.7 175.4 289.1 175 288.7 174.5C288.3 174 287.9 173.4 287.7 172.7C287.5 172 287.4 171.2 287.4 170.2C287.4 169.3 287.5 168.5 287.7 167.8C287.9 167.1 288.3 166.5 288.7 166C289.1 165.5 289.7 165.1 290.3 164.9C290.9 164.6 291.6 164.5 292.4 164.5C293.2 164.5 293.9 164.6 294.5 164.9C295.1 165.2 295.6 165.5 295.9 166C296.2 166.5 296.5 167 296.7 167.6C296.9 168.2 297 168.8 297 169.5V169.8ZM295.1 169.2C295.1 168.2 294.9 167.4 294.4 166.8C293.9 166.2 293.2 165.9 292.3 165.9C291.8 165.9 291.4 166 291 166.2C290.6 166.4 290.3 166.6 290.1 166.9C289.9 167.2 289.7 167.5 289.5 167.9C289.4 168.3 289.3 168.7 289.3 169.1L295.1 169.2Z" fill="#58585A"/>
<path d="M315.4 175.499C315.4 175.599 315.4 175.599 315.4 175.699C315.4 175.699 315.3 175.799 315.2 175.799C315.1 175.799 315 175.899 314.9 175.899C314.8 175.899 314.6 175.899 314.4 175.899C314.2 175.899 314 175.899 313.9 175.899C313.8 175.899 313.7 175.899 313.6 175.799C313.5 175.799 313.5 175.699 313.4 175.699C313.4 175.699 313.4 175.599 313.4 175.499V169.099C313.4 168.699 313.4 168.299 313.3 167.899C313.2 167.499 313.1 167.199 312.9 166.999C312.7 166.799 312.5 166.499 312.3 166.399C312 166.299 311.7 166.199 311.4 166.199C311 166.199 310.5 166.399 310.1 166.699C309.7 166.999 309.2 167.499 308.6 168.199V175.499C308.6 175.599 308.6 175.599 308.6 175.699C308.6 175.699 308.5 175.799 308.4 175.799C308.3 175.799 308.2 175.899 308.1 175.899C308 175.899 307.8 175.899 307.6 175.899C307.4 175.899 307.3 175.899 307.1 175.899C307 175.899 306.9 175.899 306.8 175.799C306.7 175.799 306.7 175.699 306.7 175.699C306.7 175.699 306.7 175.599 306.7 175.499V169.099C306.7 168.699 306.7 168.299 306.6 167.899C306.5 167.499 306.4 167.199 306.2 166.999C306 166.699 305.8 166.499 305.6 166.399C305.3 166.299 305 166.199 304.7 166.199C304.3 166.199 303.8 166.399 303.4 166.699C303 166.999 302.5 167.499 301.9 168.199V175.499C301.9 175.599 301.9 175.599 301.9 175.699C301.9 175.699 301.8 175.799 301.7 175.799C301.6 175.799 301.5 175.899 301.4 175.899C301.3 175.899 301.1 175.899 300.9 175.899C300.7 175.899 300.6 175.899 300.4 175.899C300.2 175.899 300.2 175.899 300.1 175.799C300 175.799 300 175.699 299.9 175.699C299.9 175.699 299.9 175.599 299.9 175.499V164.999C299.9 164.899 299.9 164.899 299.9 164.799L300 164.699C300.1 164.699 300.2 164.599 300.3 164.599C300.4 164.599 300.6 164.599 300.7 164.599C300.9 164.599 301 164.599 301.1 164.599C301.2 164.599 301.3 164.599 301.4 164.699C301.5 164.699 301.5 164.799 301.5 164.799C301.5 164.799 301.5 164.899 301.5 164.999V166.399C302.1 165.699 302.7 165.299 303.2 164.999C303.8 164.699 304.3 164.499 304.9 164.499C305.3 164.499 305.7 164.599 306.1 164.699C306.4 164.799 306.7 164.899 307 165.099C307.3 165.299 307.5 165.499 307.7 165.699C307.9 165.999 308 166.199 308.2 166.499C308.5 166.099 308.9 165.799 309.2 165.499C309.5 165.199 309.8 164.999 310.1 164.899C310.4 164.699 310.7 164.599 310.9 164.499C311.2 164.399 311.5 164.399 311.7 164.399C312.4 164.399 312.9 164.499 313.4 164.799C313.9 164.999 314.2 165.399 314.5 165.699C314.8 166.099 315 166.599 315.1 167.099C315.2 167.599 315.3 168.199 315.3 168.799L315.4 175.499Z" fill="#58585A"/>
<path d="M332.4 161.599C332.4 161.699 332.4 161.899 332.4 161.999C332.4 162.099 332.4 162.199 332.3 162.299C332.3 162.399 332.2 162.399 332.2 162.399C332.2 162.399 332.1 162.399 332 162.399H326.5V167.499H331.7C331.8 167.499 331.8 167.499 331.9 167.499C332 167.499 332 167.599 332 167.599C332 167.599 332.1 167.699 332.1 167.899C332.1 167.999 332.1 168.099 332.1 168.299C332.1 168.399 332.1 168.599 332.1 168.699C332.1 168.799 332.1 168.899 332 168.999C332 169.099 331.9 169.099 331.9 169.199C331.9 169.199 331.8 169.299 331.7 169.299H326.5V175.599C326.5 175.699 326.5 175.699 326.5 175.799C326.5 175.899 326.4 175.899 326.3 175.899C326.2 175.899 326.1 175.999 326 175.999C325.9 175.999 325.7 175.999 325.5 175.999C325.3 175.999 325.2 175.999 325 175.999C324.9 175.999 324.8 175.999 324.7 175.899C324.6 175.899 324.6 175.799 324.5 175.799C324.5 175.699 324.5 175.699 324.5 175.599V161.699C324.5 161.399 324.6 161.199 324.7 161.099C324.9 160.999 325 160.899 325.2 160.899H332C332.1 160.899 332.1 160.899 332.2 160.899C332.3 160.899 332.3 160.999 332.3 161.099C332.3 161.199 332.4 161.299 332.4 161.399C332.4 161.299 332.4 161.499 332.4 161.599Z" fill="#58585A"/>
<path d="M344.6 170.099C344.6 170.999 344.5 171.699 344.3 172.499C344.1 173.199 343.7 173.799 343.3 174.399C342.9 174.899 342.3 175.299 341.6 175.599C340.9 175.899 340.2 175.999 339.3 175.999C338.4 175.999 337.7 175.899 337.1 175.599C336.5 175.299 335.9 174.999 335.5 174.499C335.1 173.999 334.8 173.399 334.5 172.699C334.3 171.999 334.2 171.199 334.2 170.299C334.2 169.399 334.3 168.699 334.5 167.899C334.7 167.199 335.1 166.599 335.5 165.999C335.9 165.399 336.5 165.099 337.2 164.799C337.9 164.499 338.6 164.399 339.5 164.399C340.4 164.399 341.1 164.499 341.7 164.799C342.3 165.099 342.9 165.399 343.3 165.899C343.7 166.399 344 166.999 344.3 167.699C344.5 168.499 344.6 169.299 344.6 170.099ZM342.6 170.299C342.6 169.699 342.5 169.199 342.4 168.699C342.3 168.199 342.1 167.799 341.9 167.399C341.7 166.999 341.3 166.699 340.9 166.499C340.5 166.299 340 166.199 339.4 166.199C338.8 166.199 338.3 166.299 337.9 166.499C337.5 166.699 337.2 166.999 336.9 167.399C336.6 167.799 336.4 168.199 336.3 168.699C336.2 169.199 336.1 169.799 336.1 170.299C336.1 170.899 336.2 171.399 336.3 171.899C336.4 172.399 336.6 172.799 336.8 173.199C337 173.599 337.4 173.899 337.8 174.099C338.2 174.299 338.7 174.399 339.3 174.399C339.9 174.399 340.3 174.299 340.8 174.099C341.2 173.899 341.6 173.599 341.8 173.299C342.1 172.899 342.3 172.499 342.4 171.999C342.6 171.399 342.6 170.899 342.6 170.299Z" fill="#58585A"/>
<path d="M353.6 165.7C353.6 165.9 353.6 166 353.6 166.1C353.6 166.2 353.6 166.3 353.6 166.4C353.6 166.5 353.5 166.5 353.5 166.5L353.4 166.6C353.3 166.6 353.3 166.6 353.2 166.5C353.1 166.5 353 166.4 352.9 166.4C352.8 166.4 352.7 166.3 352.5 166.3C352.4 166.3 352.2 166.3 352 166.3C351.8 166.3 351.6 166.3 351.4 166.4C351.2 166.5 351 166.6 350.8 166.8C350.6 167 350.4 167.2 350.2 167.5C350 167.8 349.7 168.2 349.5 168.6V175.5C349.5 175.6 349.5 175.6 349.5 175.7C349.5 175.7 349.4 175.8 349.3 175.8C349.2 175.8 349.1 175.9 349 175.9C348.9 175.9 348.7 175.9 348.5 175.9C348.3 175.9 348.2 175.9 348 175.9C347.9 175.9 347.8 175.9 347.7 175.8C347.6 175.8 347.6 175.7 347.5 175.7C347.5 175.7 347.5 175.6 347.5 175.5V165C347.5 164.9 347.5 164.9 347.5 164.8L347.6 164.7C347.7 164.7 347.8 164.6 347.9 164.6C348 164.6 348.2 164.6 348.3 164.6C348.5 164.6 348.6 164.6 348.7 164.6C348.8 164.6 348.9 164.6 349 164.7C349.1 164.7 349.1 164.8 349.1 164.8C349.1 164.8 349.1 164.9 349.1 165V166.5C349.4 166.1 349.7 165.7 349.9 165.5C350.2 165.2 350.4 165 350.6 164.9C350.8 164.7 351 164.6 351.3 164.6C351.5 164.5 351.7 164.5 352 164.5C352.1 164.5 352.2 164.5 352.3 164.5C352.4 164.5 352.6 164.5 352.7 164.6C352.8 164.6 353 164.7 353.1 164.7C353.2 164.7 353.3 164.8 353.3 164.8L353.4 164.9V165C353.4 165.1 353.4 165.1 353.4 165.2C353.5 165.4 353.6 165.5 353.6 165.7Z" fill="#58585A"/>
<path d="M369.401 171.6C369.401 172.3 369.301 172.9 369.001 173.5C368.701 174.1 368.401 174.5 367.901 174.9C367.401 175.3 366.901 175.6 366.301 175.8C365.701 176 365.001 176.1 364.301 176.1C363.801 176.1 363.301 176.1 362.901 176C362.501 175.9 362.101 175.8 361.701 175.7C361.401 175.6 361.101 175.4 360.901 175.3C360.701 175.2 360.501 175.1 360.401 175C360.301 174.9 360.201 174.8 360.201 174.6C360.201 174.5 360.101 174.3 360.101 174C360.101 173.8 360.101 173.7 360.101 173.6C360.101 173.5 360.101 173.4 360.201 173.3C360.201 173.2 360.301 173.2 360.301 173.2C360.301 173.2 360.401 173.2 360.501 173.2C360.601 173.2 360.801 173.3 361.001 173.4C361.201 173.5 361.501 173.7 361.801 173.8C362.101 174 362.501 174.1 362.901 174.2C363.301 174.3 363.801 174.4 364.401 174.4C364.801 174.4 365.201 174.3 365.601 174.2C366.001 174.1 366.301 173.9 366.501 173.7C366.801 173.5 367.001 173.2 367.101 172.9C367.201 172.6 367.301 172.2 367.301 171.8C367.301 171.4 367.201 171 367.001 170.7C366.801 170.4 366.601 170.1 366.201 169.9C365.901 169.7 365.501 169.5 365.101 169.3C364.701 169.1 364.301 168.9 363.901 168.7C363.501 168.5 363.101 168.3 362.701 168C362.301 167.8 361.901 167.5 361.601 167.2C361.301 166.9 361.001 166.5 360.801 166.1C360.601 165.7 360.501 165.1 360.501 164.5C360.501 163.9 360.601 163.3 360.801 162.8C361.001 162.3 361.301 161.9 361.801 161.6C362.201 161.3 362.701 161 363.301 160.8C363.901 160.6 364.501 160.5 365.101 160.5C365.401 160.5 365.801 160.5 366.101 160.6C366.401 160.7 366.801 160.7 367.101 160.8C367.401 160.9 367.701 161 367.901 161.1C368.101 161.2 368.301 161.3 368.401 161.4C368.501 161.5 368.501 161.5 368.501 161.6C368.501 161.6 368.501 161.7 368.601 161.8C368.601 161.9 368.601 161.9 368.601 162C368.601 162.1 368.601 162.2 368.601 162.4C368.601 162.5 368.601 162.7 368.601 162.8C368.601 162.9 368.601 163 368.501 163.1C368.501 163.2 368.401 163.2 368.401 163.3L368.301 163.4C368.201 163.4 368.101 163.3 367.901 163.2C367.701 163.1 367.501 163 367.201 162.8C366.901 162.7 366.601 162.5 366.301 162.4C365.901 162.3 365.501 162.2 365.101 162.2C364.701 162.2 364.301 162.3 364.001 162.4C363.701 162.5 363.401 162.7 363.201 162.8C363.001 163 362.801 163.2 362.701 163.5C362.601 163.8 362.501 164 362.501 164.3C362.501 164.7 362.601 165.1 362.801 165.4C363.001 165.7 363.301 166 363.601 166.2C363.901 166.4 364.301 166.6 364.701 166.8C365.101 167 365.501 167.2 366.001 167.4C366.401 167.6 366.801 167.8 367.301 168C367.701 168.2 368.101 168.5 368.401 168.8C368.701 169.1 369.001 169.5 369.201 169.9C369.301 170.4 369.401 171 369.401 171.6Z" fill="#58585A"/>
<path d="M379.9 175.5C379.9 175.6 379.9 175.7 379.8 175.7C379.7 175.7 379.7 175.8 379.5 175.8C379.3 175.8 379.2 175.8 379 175.8C378.8 175.8 378.6 175.8 378.5 175.8C378.4 175.8 378.3 175.7 378.2 175.7C378.1 175.7 378.1 175.6 378.1 175.5V174.5C377.6 175 377.1 175.4 376.6 175.6C376 175.9 375.4 176 374.8 176C374.3 176 373.8 175.9 373.3 175.8C372.9 175.7 372.5 175.4 372.2 175.2C371.9 174.9 371.6 174.6 371.5 174.2C371.3 173.8 371.2 173.4 371.2 172.9C371.2 172.3 371.3 171.8 371.6 171.4C371.8 171 372.2 170.6 372.6 170.3C373 170 373.6 169.8 374.2 169.7C374.8 169.6 375.6 169.5 376.4 169.5H377.8V168.7C377.8 168.3 377.8 167.9 377.7 167.6C377.6 167.3 377.5 167 377.3 166.8C377.1 166.6 376.9 166.4 376.6 166.3C376.3 166.2 375.9 166.1 375.5 166.1C375 166.1 374.6 166.2 374.2 166.3C373.8 166.4 373.5 166.5 373.2 166.7C372.9 166.8 372.7 167 372.5 167.1C372.3 167.2 372.2 167.3 372.1 167.3C372 167.3 372 167.3 371.9 167.3L371.8 167.2C371.8 167.1 371.7 167.1 371.7 167C371.7 166.9 371.7 166.8 371.7 166.7C371.7 166.5 371.7 166.4 371.7 166.2C371.7 166.1 371.8 166 371.9 165.9C372 165.8 372.2 165.7 372.4 165.5C372.7 165.4 372.9 165.2 373.3 165.1C373.6 165 374 164.9 374.4 164.8C374.8 164.7 375.2 164.7 375.6 164.7C376.4 164.7 377 164.8 377.5 165C378 165.2 378.5 165.4 378.8 165.7C379.1 166 379.4 166.4 379.5 166.9C379.6 167.4 379.7 168 379.7 168.6L379.9 175.5ZM378 170.7H376.4C375.9 170.7 375.4 170.7 375 170.8C374.6 170.9 374.3 171 374 171.2C373.7 171.4 373.6 171.6 373.4 171.8C373.3 172 373.2 172.3 373.2 172.6C373.2 173.1 373.4 173.6 373.7 173.9C374 174.2 374.5 174.4 375.1 174.4C375.6 174.4 376.1 174.3 376.5 174C376.9 173.7 377.4 173.4 377.9 172.8L378 170.7Z" fill="#58585A"/>
<path d="M392.3 164.699C392.5 164.699 392.7 164.799 392.8 164.899C392.9 164.999 392.9 165.199 392.9 165.399V175.499C392.9 175.599 392.9 175.599 392.9 175.699C392.9 175.699 392.8 175.799 392.7 175.799C392.6 175.799 392.5 175.899 392.4 175.899C392.3 175.899 392.1 175.899 391.9 175.899C391.7 175.899 391.5 175.899 391.4 175.899C391.3 175.899 391.2 175.899 391.1 175.799C391 175.799 391 175.699 390.9 175.699C390.9 175.699 390.9 175.599 390.9 175.499V166.299H385.5V172.099C385.5 172.799 385.6 173.399 385.8 173.699C386 174.099 386.4 174.299 386.9 174.299C387.1 174.299 387.2 174.299 387.4 174.199C387.5 174.199 387.7 174.099 387.8 174.099C387.9 174.099 388 173.999 388.1 173.999C388.2 173.999 388.2 173.899 388.3 173.899H388.4L388.5 173.999C388.5 174.099 388.5 174.099 388.6 174.199C388.6 174.299 388.6 174.399 388.6 174.499C388.6 174.699 388.6 174.899 388.6 174.999C388.6 175.099 388.5 175.199 388.5 175.299C388.4 175.399 388.3 175.399 388.2 175.499C388.1 175.599 387.9 175.599 387.8 175.599C387.6 175.599 387.5 175.699 387.3 175.699C387.1 175.699 386.9 175.699 386.8 175.699C386.3 175.699 385.8 175.599 385.4 175.499C385 175.399 384.7 175.099 384.4 174.899C384.2 174.599 384 174.199 383.9 173.799C383.8 173.399 383.7 172.799 383.7 172.199V166.099H382.2C382.1 166.099 382 165.999 381.9 165.899C381.8 165.799 381.8 165.599 381.8 165.299C381.8 165.199 381.8 164.999 381.8 164.899C381.8 164.799 381.8 164.699 381.9 164.699C381.9 164.599 382 164.599 382 164.599C382.1 164.599 382.1 164.599 382.2 164.599H383.7V162.099C383.7 161.999 383.7 161.999 383.7 161.899L383.8 161.799C383.9 161.799 384 161.699 384.1 161.699C384.2 161.699 384.4 161.699 384.6 161.699C384.8 161.699 385 161.699 385.1 161.699C385.2 161.699 385.3 161.699 385.4 161.799C385.5 161.799 385.5 161.899 385.6 161.899C385.6 161.899 385.6 161.999 385.6 162.099V164.599H392.3V164.699ZM393.1 161.499C393.1 161.899 393 162.299 392.8 162.399C392.6 162.599 392.3 162.599 391.9 162.599C391.5 162.599 391.1 162.499 391 162.399C390.8 162.199 390.8 161.899 390.8 161.499C390.8 161.099 390.9 160.699 391.1 160.599C391.3 160.399 391.6 160.399 392 160.399C392.4 160.399 392.8 160.499 392.9 160.599C393 160.799 393.1 161.099 393.1 161.499Z" fill="#58585A"/>
<path d="M403 172.6C403 173.1 402.9 173.6 402.7 174C402.5 174.4 402.2 174.8 401.9 175.1C401.6 175.4 401.1 175.6 400.6 175.7C400.1 175.8 399.5 175.9 398.9 175.9C398.5 175.9 398.2 175.9 397.8 175.8C397.5 175.7 397.2 175.7 396.9 175.6C396.6 175.5 396.4 175.4 396.2 175.3C396 175.2 395.9 175.1 395.8 175C395.7 174.9 395.7 174.8 395.6 174.7C395.6 174.6 395.5 174.4 395.5 174.1C395.5 174 395.5 173.8 395.5 173.7C395.5 173.6 395.5 173.5 395.6 173.5C395.6 173.4 395.7 173.4 395.7 173.4H395.8C395.9 173.4 396 173.5 396.2 173.6C396.4 173.7 396.6 173.8 396.8 173.9C397 174 397.3 174.1 397.7 174.2C398 174.3 398.4 174.4 398.8 174.4C399.1 174.4 399.4 174.4 399.7 174.3C400 174.2 400.2 174.1 400.4 174C400.6 173.9 400.7 173.7 400.8 173.5C400.9 173.3 401 173 401 172.8C401 172.5 400.9 172.3 400.8 172.1C400.7 171.9 400.5 171.7 400.2 171.6C399.9 171.5 399.7 171.3 399.4 171.2C399.1 171.1 398.8 171 398.4 170.8C398.1 170.7 397.8 170.5 397.4 170.4C397.1 170.2 396.8 170 396.6 169.8C396.4 169.6 396.2 169.3 396 168.9C395.8 168.6 395.8 168.2 395.8 167.7C395.8 167.3 395.9 166.9 396 166.5C396.2 166.1 396.4 165.8 396.7 165.5C397 165.2 397.4 165 397.9 164.8C398.4 164.6 398.9 164.5 399.6 164.5C399.9 164.5 400.2 164.5 400.4 164.6C400.7 164.6 400.9 164.7 401.2 164.8C401.4 164.9 401.6 164.9 401.8 165C402 165.1 402.1 165.2 402.2 165.2C402.3 165.3 402.3 165.3 402.4 165.4C402.4 165.4 402.4 165.5 402.5 165.6C402.5 165.7 402.5 165.7 402.5 165.8C402.5 165.9 402.5 166 402.5 166.1C402.5 166.2 402.5 166.3 402.5 166.4C402.5 166.5 402.5 166.6 402.4 166.6C402.4 166.7 402.3 166.7 402.3 166.7H402.2C402.1 166.7 402 166.7 401.9 166.6C401.8 166.5 401.6 166.4 401.4 166.3C401.2 166.2 400.9 166.1 400.7 166C400.4 165.9 400.1 165.9 399.7 165.9C399.4 165.9 399.1 165.9 398.8 166C398.6 166.1 398.3 166.2 398.2 166.3C398 166.4 397.9 166.6 397.8 166.8C397.7 167 397.7 167.2 397.7 167.4C397.7 167.7 397.8 168 397.9 168.2C398.1 168.4 398.3 168.6 398.5 168.7C398.7 168.8 399 169 399.3 169.1C399.6 169.2 399.9 169.4 400.3 169.5C400.6 169.6 401 169.8 401.3 169.9C401.6 170.1 401.9 170.3 402.2 170.5C402.4 170.7 402.6 171 402.8 171.3C402.9 171.8 403 172.2 403 172.6Z" fill="#58585A"/>
<path d="M411.301 160.7C411.301 160.8 411.301 161 411.301 161.1C411.301 161.2 411.301 161.3 411.201 161.3C411.201 161.4 411.201 161.4 411.101 161.4H411.001C410.901 161.4 410.901 161.4 410.801 161.3C410.701 161.3 410.601 161.2 410.501 161.2C410.401 161.2 410.201 161.1 410.101 161.1C409.901 161.1 409.801 161 409.501 161C409.201 161 409.001 161 408.801 161.1C408.601 161.2 408.401 161.3 408.301 161.5C408.201 161.7 408.101 162 408.001 162.3C407.901 162.6 407.901 163 407.901 163.4V164.5H410.201C410.301 164.5 410.301 164.5 410.401 164.5L410.501 164.6C410.501 164.7 410.601 164.7 410.601 164.8C410.601 164.9 410.601 165 410.601 165.2C410.601 165.5 410.601 165.7 410.501 165.8C410.401 165.9 410.301 166 410.201 166H408.001V175.2C408.001 175.3 408.001 175.3 408.001 175.4C408.001 175.4 407.901 175.5 407.801 175.5C407.701 175.5 407.601 175.6 407.501 175.6C407.401 175.6 407.201 175.6 407.001 175.6C406.801 175.6 406.701 175.6 406.501 175.6C406.401 175.6 406.301 175.6 406.201 175.5C406.101 175.5 406.101 175.4 406.001 175.4C406.001 175.4 406.001 175.3 406.001 175.2V166H404.501C404.401 166 404.301 165.9 404.201 165.8C404.101 165.7 404.101 165.5 404.101 165.2C404.101 165.1 404.101 164.9 404.101 164.8C404.101 164.7 404.101 164.6 404.201 164.6C404.201 164.5 404.301 164.5 404.301 164.5C404.301 164.5 404.401 164.5 404.501 164.5H406.001V163.4C406.001 162.7 406.101 162 406.201 161.5C406.301 161 406.501 160.5 406.801 160.2C407.101 159.9 407.401 159.6 407.801 159.5C408.201 159.3 408.701 159.3 409.301 159.3C409.601 159.3 409.801 159.3 410.101 159.4C410.401 159.4 410.601 159.5 410.701 159.6C410.801 159.7 410.901 159.7 411.001 159.8C411.001 159.8 411.101 159.9 411.101 160C411.101 160.1 411.201 160.2 411.201 160.3C411.301 160.5 411.301 160.6 411.301 160.7Z" fill="#58585A"/>
<path d="M420.2 175.5C420.2 175.6 420.2 175.7 420.1 175.7C420 175.7 420 175.8 419.8 175.8C419.7 175.8 419.5 175.8 419.3 175.8C419.1 175.8 418.9 175.8 418.8 175.8C418.7 175.8 418.6 175.7 418.5 175.7C418.4 175.7 418.4 175.6 418.4 175.5V174.5C417.9 175 417.4 175.4 416.9 175.6C416.3 175.9 415.7 176 415.1 176C414.6 176 414.1 175.9 413.6 175.8C413.2 175.7 412.8 175.4 412.5 175.2C412.2 174.9 411.9 174.6 411.8 174.2C411.6 173.8 411.5 173.4 411.5 172.9C411.5 172.3 411.6 171.8 411.9 171.4C412.1 171 412.5 170.6 412.9 170.3C413.3 170 413.9 169.8 414.5 169.7C415.1 169.6 415.9 169.5 416.7 169.5H418.1V168.7C418.1 168.3 418.1 167.9 418 167.6C417.9 167.3 417.8 167 417.6 166.8C417.4 166.6 417.2 166.4 416.9 166.3C416.6 166.2 416.2 166.1 415.8 166.1C415.3 166.1 414.9 166.2 414.5 166.3C414.1 166.4 413.8 166.5 413.5 166.7C413.2 166.8 413 167 412.8 167.1C412.6 167.2 412.5 167.3 412.4 167.3C412.3 167.3 412.3 167.3 412.2 167.3L412.1 167.2C412.1 167.1 412 167.1 412 167C412 166.9 412 166.8 412 166.7C412 166.5 412 166.4 412 166.2C412 166.1 412.1 166 412.2 165.9C412.3 165.8 412.5 165.7 412.7 165.5C413 165.4 413.2 165.2 413.6 165.1C413.9 165 414.3 164.9 414.7 164.8C415.1 164.7 415.5 164.7 415.9 164.7C416.7 164.7 417.3 164.8 417.8 165C418.3 165.2 418.8 165.4 419.1 165.7C419.4 166 419.7 166.4 419.8 166.9C419.9 167.4 420 168 420 168.6L420.2 175.5ZM418.3 170.7H416.7C416.2 170.7 415.7 170.7 415.3 170.8C414.9 170.9 414.6 171 414.3 171.2C414 171.4 413.9 171.6 413.7 171.8C413.6 172 413.5 172.3 413.5 172.6C413.5 173.1 413.7 173.6 414 173.9C414.3 174.2 414.8 174.4 415.4 174.4C415.9 174.4 416.4 174.3 416.8 174C417.2 173.7 417.7 173.4 418.2 172.8L418.3 170.7Z" fill="#58585A"/>
<path d="M431.2 173.899C431.2 173.999 431.2 174.099 431.2 174.199C431.2 174.299 431.2 174.399 431.2 174.399C431.2 174.499 431.2 174.499 431.1 174.599C431.1 174.699 431 174.699 430.9 174.799C430.8 174.899 430.6 174.999 430.4 175.199C430.2 175.299 429.9 175.499 429.6 175.599C429.3 175.699 429 175.799 428.7 175.899C428.4 175.999 428 175.999 427.6 175.999C426.8 175.999 426.2 175.899 425.6 175.599C425 175.399 424.5 174.999 424.1 174.499C423.7 173.999 423.4 173.399 423.2 172.699C423 171.999 422.9 171.199 422.9 170.299C422.9 169.299 423 168.399 423.3 167.599C423.6 166.899 423.9 166.299 424.3 165.799C424.7 165.299 425.3 164.999 425.8 164.699C426.4 164.499 427 164.399 427.7 164.399C428 164.399 428.4 164.399 428.7 164.499C429 164.599 429.3 164.599 429.6 164.699C429.9 164.799 430.1 164.899 430.3 164.999C430.5 165.099 430.7 165.199 430.7 165.299C430.8 165.399 430.9 165.499 430.9 165.499C430.9 165.599 431 165.599 431 165.699C431 165.799 431 165.899 431 165.899C431 165.999 431 166.099 431 166.199C431 166.499 431 166.699 430.9 166.799C430.8 166.899 430.7 166.999 430.6 166.999C430.5 166.999 430.3 166.899 430.2 166.799C430 166.699 429.9 166.499 429.6 166.399C429.4 166.199 429.1 166.099 428.8 165.999C428.5 165.899 428.1 165.799 427.6 165.799C426.7 165.799 426 166.199 425.5 166.899C425 167.599 424.8 168.599 424.8 169.999C424.8 170.699 424.9 171.299 425 171.799C425.1 172.299 425.3 172.699 425.6 173.099C425.9 173.499 426.2 173.699 426.5 173.899C426.9 174.099 427.3 174.099 427.7 174.099C428.1 174.099 428.5 173.999 428.9 173.899C429.3 173.799 429.5 173.599 429.8 173.399C430 173.199 430.2 173.099 430.4 172.899C430.6 172.799 430.7 172.699 430.8 172.699C430.9 172.699 430.9 172.699 430.9 172.699C430.9 172.699 431 172.799 431 172.899C431 172.999 431 173.099 431.1 173.199C431.2 173.599 431.2 173.699 431.2 173.899Z" fill="#58585A"/>
<path d="M442.9 164.699C443.1 164.699 443.3 164.799 443.4 164.899C443.5 164.999 443.5 165.199 443.5 165.399V175.499C443.5 175.599 443.5 175.599 443.5 175.699C443.5 175.699 443.4 175.799 443.3 175.799C443.2 175.799 443.1 175.899 443 175.899C442.9 175.899 442.7 175.899 442.5 175.899C442.3 175.899 442.1 175.899 442 175.899C441.9 175.899 441.8 175.899 441.7 175.799C441.6 175.799 441.6 175.699 441.5 175.699C441.5 175.699 441.5 175.599 441.5 175.499V166.299H436.1V172.099C436.1 172.799 436.2 173.399 436.4 173.699C436.6 174.099 437 174.299 437.5 174.299C437.7 174.299 437.8 174.299 438 174.199C438.1 174.199 438.3 174.099 438.4 174.099C438.5 174.099 438.6 173.999 438.7 173.999C438.8 173.999 438.8 173.899 438.9 173.899H439L439.1 173.999C439.1 174.099 439.1 174.099 439.2 174.199C439.2 174.299 439.2 174.399 439.2 174.499C439.2 174.699 439.2 174.899 439.2 174.999C439.2 175.099 439.1 175.199 439.1 175.299C439 175.399 438.9 175.399 438.8 175.499C438.7 175.599 438.5 175.599 438.4 175.599C438.2 175.599 438.1 175.699 437.9 175.699C437.7 175.699 437.5 175.699 437.4 175.699C436.9 175.699 436.4 175.599 436 175.499C435.6 175.399 435.3 175.099 435 174.899C434.8 174.599 434.6 174.199 434.5 173.799C434.4 173.399 434.3 172.799 434.3 172.199V166.099H432.8C432.7 166.099 432.6 165.999 432.5 165.899C432.4 165.799 432.4 165.599 432.4 165.299C432.4 165.199 432.4 164.999 432.4 164.899C432.4 164.799 432.4 164.699 432.5 164.699C432.5 164.599 432.6 164.599 432.6 164.599C432.6 164.599 432.7 164.599 432.8 164.599H434.3V162.099C434.3 161.999 434.3 161.999 434.3 161.899C434.3 161.899 434.4 161.799 434.5 161.799C434.6 161.799 434.7 161.699 434.8 161.699C434.9 161.699 435.1 161.699 435.3 161.699C435.5 161.699 435.7 161.699 435.8 161.699C435.9 161.699 436 161.699 436.1 161.799C436.2 161.799 436.2 161.899 436.3 161.899C436.3 161.899 436.3 161.999 436.3 162.099V164.599H442.9V164.699ZM443.7 161.499C443.7 161.899 443.6 162.299 443.4 162.399C443.2 162.599 442.9 162.599 442.5 162.599C442.1 162.599 441.7 162.499 441.6 162.399C441.4 162.199 441.3 161.899 441.3 161.499C441.3 161.099 441.4 160.699 441.6 160.599C441.8 160.399 442.1 160.399 442.5 160.399C442.9 160.399 443.3 160.499 443.4 160.599C443.6 160.799 443.7 161.099 443.7 161.499Z" fill="#58585A"/>
<path d="M456.7 170.099C456.7 170.999 456.6 171.699 456.4 172.499C456.2 173.199 455.8 173.799 455.4 174.399C455 174.899 454.4 175.299 453.7 175.599C453 175.899 452.3 175.999 451.4 175.999C450.5 175.999 449.8 175.899 449.2 175.599C448.6 175.299 448 174.999 447.6 174.499C447.2 173.999 446.9 173.399 446.6 172.699C446.4 171.999 446.3 171.199 446.3 170.299C446.3 169.399 446.4 168.699 446.6 167.899C446.8 167.199 447.2 166.599 447.6 165.999C448 165.399 448.6 165.099 449.3 164.799C450 164.499 450.7 164.399 451.6 164.399C452.5 164.399 453.2 164.499 453.8 164.799C454.4 165.099 455 165.399 455.4 165.899C455.8 166.399 456.1 166.999 456.4 167.699C456.6 168.499 456.7 169.299 456.7 170.099ZM454.8 170.299C454.8 169.699 454.7 169.199 454.6 168.699C454.5 168.199 454.3 167.799 454.1 167.399C453.9 166.999 453.5 166.699 453.1 166.499C452.7 166.299 452.2 166.199 451.6 166.199C451 166.199 450.5 166.299 450.1 166.499C449.7 166.699 449.4 166.999 449.1 167.399C448.8 167.799 448.6 168.199 448.5 168.699C448.4 169.199 448.3 169.799 448.3 170.299C448.3 170.899 448.4 171.399 448.5 171.899C448.6 172.399 448.8 172.799 449 173.199C449.2 173.599 449.6 173.899 450 174.099C450.4 174.299 450.9 174.399 451.5 174.399C452.1 174.399 452.5 174.299 453 174.099C453.4 173.899 453.8 173.599 454 173.299C454.3 172.899 454.5 172.499 454.6 171.999C454.7 171.399 454.8 170.899 454.8 170.299Z" fill="#58585A"/>
<path d="M468.6 175.5C468.6 175.6 468.6 175.6 468.6 175.7C468.6 175.7 468.5 175.8 468.4 175.8C468.3 175.8 468.2 175.9 468.1 175.9C468 175.9 467.8 175.9 467.6 175.9C467.4 175.9 467.2 175.9 467.1 175.9C467 175.9 466.9 175.9 466.8 175.8C466.7 175.7 466.7 175.7 466.6 175.7C466.6 175.7 466.6 175.6 466.6 175.5V169.4C466.6 168.8 466.6 168.3 466.5 168C466.4 167.6 466.3 167.3 466.1 167.1C465.9 166.8 465.7 166.6 465.4 166.5C465.1 166.4 464.8 166.3 464.4 166.3C463.9 166.3 463.4 166.5 463 166.8C462.6 167.1 462 167.6 461.5 168.3V175.6C461.5 175.7 461.5 175.7 461.5 175.8C461.5 175.8 461.4 175.9 461.3 175.9C461.2 175.9 461.1 176 461 176C460.9 176 460.7 176 460.5 176C460.3 176 460.2 176 460 176C459.9 176 459.8 176 459.7 175.9C459.6 175.9 459.6 175.8 459.5 175.8C459.5 175.8 459.5 175.7 459.5 175.6V165C459.5 164.9 459.5 164.9 459.5 164.8L459.6 164.7C459.7 164.7 459.8 164.6 459.9 164.6C460 164.6 460.2 164.6 460.3 164.6C460.5 164.6 460.6 164.6 460.7 164.6C460.8 164.6 460.9 164.6 461 164.7C461.1 164.7 461.1 164.8 461.1 164.8C461.1 164.8 461.1 164.9 461.1 165V166.4C461.7 165.7 462.3 165.3 462.9 165C463.5 164.7 464.1 164.5 464.7 164.5C465.4 164.5 466 164.6 466.5 164.9C467 165.1 467.4 165.5 467.7 165.8C468 166.2 468.2 166.7 468.3 167.2C468.4 167.7 468.5 168.4 468.5 169.1L468.6 175.5Z" fill="#58585A"/>
<path d="M471.4 106.4C471.4 106.5 471.4 106.6 471.4 106.6C471.4 106.7 471.4 106.7 471.4 106.7C471.4 106.7 471.4 106.8 471.3 106.8C471.2 106.8 471.2 106.8 471.2 106.8H468.8V114.3V114.4C468.8 114.4 468.8 114.4 468.7 114.5C468.7 114.5 468.6 114.5 468.5 114.5C468.4 114.5 468.3 114.5 468.2 114.5C468.1 114.5 468 114.5 467.9 114.5C467.8 114.5 467.8 114.5 467.7 114.5C467.7 114.5 467.6 114.5 467.6 114.4V114.3V106.8H465.2H465.1C465.1 106.8 465 106.8 465 106.7C465 106.6 465 106.6 465 106.6C465 106.5 465 106.5 465 106.4C465 106.3 465 106.2 465 106.2C465 106.1 465 106.1 465 106C465 106 465 105.9 465.1 105.9H465.2H471.2H471.3C471.3 105.9 471.4 105.9 471.4 106C471.4 106 471.4 106.1 471.4 106.2C471.4 106.2 471.4 106.3 471.4 106.4Z" fill="#58585A"/>
<path d="M482 114.3C482 114.4 482 114.4 482 114.3C482 114.4 481.9 114.4 481.9 114.5C481.9 114.5 481.8 114.5 481.7 114.5C481.6 114.5 481.5 114.5 481.4 114.5C481.3 114.5 481.2 114.5 481.1 114.5C481 114.5 481 114.5 480.9 114.5C480.9 114.5 480.8 114.5 480.8 114.4V114.3V106.8L477.8 114.3C477.8 114.3 477.8 114.4 477.7 114.4C477.7 114.4 477.6 114.4 477.6 114.5C477.6 114.5 477.5 114.5 477.4 114.5C477.3 114.5 477.3 114.5 477.2 114.5C477.1 114.5 477 114.5 477 114.5C476.9 114.5 476.9 114.5 476.8 114.5C476.8 114.5 476.7 114.5 476.7 114.4C476.7 114.4 476.7 114.4 476.7 114.3L473.8 106.8V114.3V114.4C473.8 114.4 473.8 114.4 473.7 114.5C473.7 114.5 473.6 114.5 473.5 114.5C473.4 114.5 473.3 114.5 473.2 114.5C473.1 114.5 473 114.5 472.9 114.5C472.8 114.5 472.8 114.5 472.7 114.5C472.7 114.5 472.6 114.5 472.6 114.4V114.3V106.4C472.6 106.2 472.6 106.1 472.7 106C472.8 105.9 472.9 105.9 473 105.9H473.7C473.8 105.9 474 105.9 474.1 105.9C474.2 105.9 474.3 106 474.4 106C474.5 106.1 474.5 106.1 474.6 106.2C474.7 106.3 474.7 106.4 474.7 106.5L477.2 112.7L479.8 106.5C479.8 106.4 479.9 106.3 480 106.2C480.1 106.1 480.1 106 480.2 106C480.3 105.9 480.3 105.9 480.4 105.9C480.5 105.9 480.6 105.9 480.7 105.9H481.4C481.5 105.9 481.5 105.9 481.6 105.9C481.7 105.9 481.7 106 481.8 106C481.8 106 481.9 106.1 481.9 106.2C481.9 106.3 481.9 106.3 481.9 106.4L482 114.3Z" fill="#58585A"/>
<path d="M137.9 82.1996L161 42.3996L162.1 40.5996H164.2H210H212.1L213.1 42.3996L236.2 81.7996L237.3 83.5996L236.3 85.4996L224.9 105.3H216.6L229 83.6996L208 47.8996H166.2L145.2 83.9996L157.8 105.3H149.4L137.9 85.8996L136.9 84.0996L137.9 82.1996Z" fill="#0095DA"/>
<path d="M1.1 82.1996L24.2 42.3996L25.2 40.5996H27.3H73.1H75.2L76.2 42.3996L99.4 81.7996L100.4 83.5996L99.4 85.4996L88 105.3H79.7L92.1 83.6996L71.1 47.8996H29.4L8.4 83.9996L20.9 105.3H12.5L1.1 85.8996L0 84.0996L1.1 82.1996Z" fill="#0095DA"/>
<path d="M69.5004 41.6L92.6004 1.79999L93.7004 0H95.7004H141.6H143.6L144.7 1.79999L167.8 41.2L168.9 43L167.8 44.8L156.5 64.7H148.1L160.5 43L139.5 7.20001H97.8004L76.8004 43.4L89.4004 64.7H81.0004L69.5004 45.3L68.4004 43.4L69.5004 41.6Z" fill="#0095DA"/>
<path d="M69.5004 45.1L92.6004 84.9L93.7004 86.7H95.7004H141.6H143.6L144.7 84.9L167.8 45.5L168.9 43.7L167.8 41.9L156.5 22H148.1L160.5 43.7L139.5 79.5H97.8004L76.8004 43.3L89.4004 22H81.0004L69.5004 41.5L68.4004 43.3L69.5004 45.1Z" fill="#0095DA"/>
</svg>
